<?xml version="1.0" encoding="utf-8"?>
<!-- Generator: Adobe Illustrator 25.0.1, SVG Export Plug-In . SVG Version: 6.00 Build 0)  -->
<svg version="1.1" id="Layer_1" xmlns="http://www.w3.org/2000/svg" xmlns:xlink="http://www.w3.org/1999/xlink" x="0px" y="0px"
	 viewBox="0 0 512 512" style="enable-background:new 0 0 512 512;" xml:space="preserve">
<style type="text/css">
	.st0{fill:#00E6DF;}
	.st1{fill:#FF5E5E;}
</style>
<g>
	<path class="st0" d="M203.2,279.5h-33.1c-5.5,0-9.9-4.5-9.9-9.9v-33.1c0-5.5,4.5-9.9,9.9-9.9h33.1c5.5,0,9.9,4.5,9.9,9.9v33.1
		C213.1,275,208.7,279.5,203.2,279.5z M292.6,269.6v-33.1c0-5.5-4.5-9.9-9.9-9.9h-33.1c-5.5,0-9.9,4.5-9.9,9.9v33.1
		c0,5.5,4.5,9.9,9.9,9.9h33.1C288.2,279.5,292.6,275,292.6,269.6z M372.1,269.6v-33.1c0-5.5-4.5-9.9-9.9-9.9h-33.1
		c-5.5,0-9.9,4.5-9.9,9.9v33.1c0,5.5,4.5,9.9,9.9,9.9h33.1C367.7,279.5,372.1,275,372.1,269.6z M292.6,349.1v-33.1
		c0-5.5-4.5-9.9-9.9-9.9h-33.1c-5.5,0-9.9,4.5-9.9,9.9v33.1c0,5.5,4.5,9.9,9.9,9.9h33.1C288.2,359,292.6,354.5,292.6,349.1z
		 M213.1,349.1v-33.1c0-5.5-4.5-9.9-9.9-9.9h-33.1c-5.5,0-9.9,4.5-9.9,9.9v33.1c0,5.5,4.5,9.9,9.9,9.9h33.1
		C208.7,359,213.1,354.5,213.1,349.1z M372.1,349.1v-33.1c0-5.5-4.5-9.9-9.9-9.9h-33.1c-5.5,0-9.9,4.5-9.9,9.9v33.1
		c0,5.5,4.5,9.9,9.9,9.9h33.1C367.7,359,372.1,354.5,372.1,349.1z M451.6,133.8v291.5c0,21.9-17.8,39.7-39.7,39.7H120.4
		c-21.9,0-39.7-17.8-39.7-39.7V133.8c0-21.9,17.8-39.7,39.7-39.7h39.7V51c0-5.5,4.5-9.9,9.9-9.9h33.1c5.5,0,9.9,4.5,9.9,9.9V94h106
		V51c0-5.5,4.5-9.9,9.9-9.9h33.1c5.5,0,9.9,4.5,9.9,9.9V94h39.7C433.8,94,451.6,111.8,451.6,133.8z M411.9,420.3V173.5H120.4v246.8
		c0,2.7,2.2,5,5,5h281.5C409.6,425.2,411.9,423,411.9,420.3z"/>
	<path class="st1" d="M182.9,279.5h-33.1c-5.5,0-9.9-4.5-9.9-9.9v-33.1c0-5.5,4.5-9.9,9.9-9.9h33.1c5.5,0,9.9,4.5,9.9,9.9v33.1
		C192.9,275,188.4,279.5,182.9,279.5z M272.4,269.6v-33.1c0-5.5-4.5-9.9-9.9-9.9h-33.1c-5.5,0-9.9,4.5-9.9,9.9v33.1
		c0,5.5,4.5,9.9,9.9,9.9h33.1C267.9,279.5,272.4,275,272.4,269.6z M351.8,269.6v-33.1c0-5.5-4.5-9.9-9.9-9.9h-33.1
		c-5.5,0-9.9,4.5-9.9,9.9v33.1c0,5.5,4.5,9.9,9.9,9.9h33.1C347.4,279.5,351.8,275,351.8,269.6z M272.4,349.1v-33.1
		c0-5.5-4.5-9.9-9.9-9.9h-33.1c-5.5,0-9.9,4.5-9.9,9.9v33.1c0,5.5,4.5,9.9,9.9,9.9h33.1C267.9,359,272.4,354.5,272.4,349.1z
		 M192.9,349.1v-33.1c0-5.5-4.5-9.9-9.9-9.9h-33.1c-5.5,0-9.9,4.5-9.9,9.9v33.1c0,5.5,4.5,9.9,9.9,9.9h33.1
		C188.4,359,192.9,354.5,192.9,349.1z M351.8,349.1v-33.1c0-5.5-4.5-9.9-9.9-9.9h-33.1c-5.5,0-9.9,4.5-9.9,9.9v33.1
		c0,5.5,4.5,9.9,9.9,9.9h33.1C347.4,359,351.8,354.5,351.8,349.1z M431.3,133.8v291.5c0,21.9-17.8,39.7-39.7,39.7H100.1
		c-21.9,0-39.7-17.8-39.7-39.7V133.8c0-21.9,17.8-39.7,39.7-39.7h39.7V51c0-5.5,4.5-9.9,9.9-9.9h33.1c5.5,0,9.9,4.5,9.9,9.9V94h106
		V51c0-5.5,4.5-9.9,9.9-9.9h33.1c5.5,0,9.9,4.5,9.9,9.9V94h39.7C413.5,94,431.3,111.8,431.3,133.8z M391.6,420.3V173.5H100.1v246.8
		c0,2.7,2.2,5,5,5h281.5C389.4,425.2,391.6,423,391.6,420.3z"/>
</g>
</svg>
