<?xml version="1.0" encoding="utf-8"?>
<!-- Generator: Adobe Illustrator 25.0.1, SVG Export Plug-In . SVG Version: 6.00 Build 0)  -->
<svg version="1.1" id="Layer_1" xmlns="http://www.w3.org/2000/svg" xmlns:xlink="http://www.w3.org/1999/xlink" x="0px" y="0px"
	 viewBox="0 0 512 512" style="enable-background:new 0 0 512 512;" xml:space="preserve">
<style type="text/css">
	.st0{fill:#FF5E5E;}
	.st1{fill:#00E6DF;}
</style>
<g>
	<g>
		<path class="st0" d="M45.6,371.4l27.7,48c3.4,5.9,10.9,7.9,16.8,4.5l24.6-14.2c4.6,3.3,9.5,6.1,14.7,8.5v28.4
			c0,6.8,5.5,12.3,12.3,12.3H197c6.8,0,12.3-5.5,12.3-12.3v-28.4c5.1-2.4,10-5.2,14.7-8.5l24.6,14.2c5.9,3.4,13.4,1.4,16.8-4.5
			l27.7-48c3.4-5.9,1.4-13.4-4.5-16.8l-24.6-14.2c0.5-5.6,0.5-11.3,0-16.9l24.6-14.2c5.9-3.4,7.9-10.9,4.5-16.8l-27.7-48
			c-3.4-5.9-10.9-7.9-16.8-4.5l-24.6,14.2c-4.6-3.3-9.5-6.1-14.7-8.5v-28.4c0-6.8-5.5-12.3-12.3-12.3h-55.4
			c-6.8,0-12.3,5.5-12.3,12.3v28.4c-5.1,2.4-10,5.2-14.7,8.5l-24.6-14.2c-5.9-3.4-13.4-1.4-16.8,4.5l-27.7,48
			c-3.4,5.9-1.4,13.4,4.5,16.8l24.6,14.2c-0.5,5.6-0.5,11.3,0,16.9l-24.6,14.2C44.3,358.1,42.3,365.6,45.6,371.4z M118.7,332
			c0-27.9,22.7-50.6,50.6-50.6s50.6,22.7,50.6,50.6c0,27.9-22.7,50.6-50.6,50.6S118.7,359.9,118.7,332z"/>
	</g>
</g>
<g>
	<g>
		<path class="st0" d="M242.7,193.6l22,38c3.4,5.9,10.9,7.9,16.8,4.5l18.1-10.4c2.9,2,6,3.8,9.2,5.3v20.9c0,6.8,5.5,12.3,12.3,12.3
			h43.9c6.8,0,12.3-5.5,12.3-12.3V231c3.2-1.6,6.3-3.3,9.2-5.3l18.1,10.4c5.9,3.4,13.4,1.4,16.8-4.5l22-38
			c3.4-5.9,1.4-13.4-4.5-16.8l-18.1-10.4c0.2-3.5,0.2-7.1,0-10.6l18.1-10.4c5.9-3.4,7.9-10.9,4.5-16.8l-22-38
			c-3.4-5.9-10.9-7.9-16.8-4.5l-18.1,10.4c-2.9-2-6-3.8-9.2-5.3V70.3c0-6.8-5.5-12.3-12.3-12.3H321c-6.8,0-12.3,5.5-12.3,12.3v20.9
			c-3.2,1.6-6.3,3.3-9.2,5.3L281.4,86c-5.9-3.4-13.4-1.4-16.8,4.5l-22,38c-3.4,5.9-1.4,13.4,4.5,16.8l18.1,10.4
			c-0.2,3.5-0.2,7.1,0,10.6l-18.1,10.4C241.3,180.2,239.3,187.7,242.7,193.6z M300.3,161.1c0-23.5,19.1-42.6,42.6-42.6
			c23.5,0,42.6,19.1,42.6,42.6s-19.1,42.6-42.6,42.6C319.4,203.7,300.3,184.6,300.3,161.1z"/>
	</g>
</g>
<g>
	<g>
		<path class="st1" d="M65.8,371.4l27.7,48c3.4,5.9,10.9,7.9,16.8,4.5l24.6-14.2c4.6,3.3,9.5,6.1,14.7,8.5v28.4
			c0,6.8,5.5,12.3,12.3,12.3h55.4c6.8,0,12.3-5.5,12.3-12.3v-28.4c5.1-2.4,10-5.2,14.7-8.5l24.6,14.2c5.9,3.4,13.4,1.4,16.8-4.5
			l27.7-48c3.4-5.9,1.4-13.4-4.5-16.8l-24.6-14.2c0.5-5.6,0.5-11.3,0-16.9l24.6-14.2c5.9-3.4,7.9-10.9,4.5-16.8l-27.7-48
			c-3.4-5.9-10.9-7.9-16.8-4.5l-24.6,14.2c-4.6-3.3-9.5-6.1-14.7-8.5v-28.4c0-6.8-5.5-12.3-12.3-12.3h-55.4
			c-6.8,0-12.3,5.5-12.3,12.3v28.4c-5.1,2.4-10,5.2-14.7,8.5l-24.6-14.2c-5.9-3.4-13.4-1.4-16.8,4.5l-27.7,48
			c-3.4,5.9-1.4,13.4,4.5,16.8l24.6,14.2c-0.5,5.6-0.5,11.3,0,16.9l-24.6,14.2C64.4,358.1,62.4,365.6,65.8,371.4z M138.9,332
			c0-27.9,22.7-50.6,50.6-50.6S240,304.2,240,332c0,27.9-22.7,50.6-50.6,50.6S138.9,359.9,138.9,332z"/>
	</g>
</g>
<g>
	<g>
		<path class="st1" d="M262.9,193.6l22,38c3.4,5.9,10.9,7.9,16.8,4.5l18.1-10.4c2.9,2,6,3.8,9.2,5.3v20.9c0,6.8,5.5,12.3,12.3,12.3
			h43.9c6.8,0,12.3-5.5,12.3-12.3V231c3.2-1.6,6.3-3.3,9.2-5.3l18.1,10.4c5.9,3.4,13.4,1.4,16.8-4.5l22-38
			c3.4-5.9,1.4-13.4-4.5-16.8l-18.1-10.4c0.2-3.5,0.2-7.1,0-10.6l18.1-10.4c5.9-3.4,7.9-10.9,4.5-16.8l-22-38
			c-3.4-5.9-10.9-7.9-16.8-4.5l-18.1,10.4c-2.9-2-6-3.8-9.2-5.3V70.3c0-6.8-5.5-12.3-12.3-12.3h-43.9c-6.8,0-12.3,5.5-12.3,12.3
			v20.9c-3.2,1.6-6.3,3.3-9.2,5.3L301.6,86c-5.9-3.4-13.4-1.4-16.8,4.5l-22,38c-3.4,5.9-1.4,13.4,4.5,16.8l18.1,10.4
			c-0.2,3.5-0.2,7.1,0,10.6l-18.1,10.4C261.5,180.2,259.5,187.7,262.9,193.6z M320.5,161.1c0-23.5,19.1-42.6,42.6-42.6
			c23.5,0,42.6,19.1,42.6,42.6s-19.1,42.6-42.6,42.6C339.6,203.7,320.5,184.6,320.5,161.1z"/>
	</g>
</g>
</svg>
