<?xml version="1.0" encoding="utf-8"?>
<!-- Generator: Adobe Illustrator 25.0.1, SVG Export Plug-In . SVG Version: 6.00 Build 0)  -->
<svg version="1.1" id="Layer_1" xmlns="http://www.w3.org/2000/svg" xmlns:xlink="http://www.w3.org/1999/xlink" x="0px" y="0px"
	 viewBox="0 0 512 512" style="enable-background:new 0 0 512 512;" xml:space="preserve">
<style type="text/css">
	.st0{fill:#00E6DF;}
	.st1{fill:#FF5E5E;}
</style>
<g>
	<path class="st0" d="M398.8,78h-264c-3,0-5.9,1.5-7.5,4.1l-75,110.4c-2.2,3.3-2,7.7,0.5,10.7l207,255.6c3.6,4.4,10.4,4.4,14,0
		l207-255.6c2.5-3.1,2.7-7.4,0.5-10.7L406.3,82.1C404.6,79.5,401.8,78,398.8,78z M384.3,114l47.5,72h-51.3l-38.8-72H384.3L384.3,114
		z M232.7,114h68l38.8,72H194L232.7,114z M149.2,114h42.6L153,186h-51.3L149.2,114z M117,222h38.6l51.2,120L117,222z M194.1,222
		h145.2l-72.6,182.5L194.1,222L194.1,222z M326.7,342l51.2-120h38.6L326.7,342z"/>
	<path class="st1" d="M377.3,78h-264c-3,0-5.9,1.5-7.5,4.1l-75,110.4c-2.2,3.3-2,7.7,0.5,10.7l207,255.6c3.6,4.4,10.4,4.4,14,0
		l207-255.6c2.5-3.1,2.7-7.4,0.5-10.7L384.8,82.1C383.1,79.5,380.3,78,377.3,78z M362.8,114l47.5,72H359l-38.8-72H362.8L362.8,114z
		 M211.2,114h68l38.8,72H172.5L211.2,114z M127.7,114h42.6l-38.8,72H80.2L127.7,114z M95.5,222H134l51.2,120L95.5,222z M172.7,222
		h145.2l-72.6,182.5L172.7,222L172.7,222z M305.3,342l51.2-120H395L305.3,342z"/>
</g>
</svg>
