<?xml version="1.0" encoding="utf-8"?>
<!-- Generator: Adobe Illustrator 25.0.1, SVG Export Plug-In . SVG Version: 6.00 Build 0)  -->
<svg version="1.1" id="Layer_1" xmlns="http://www.w3.org/2000/svg" xmlns:xlink="http://www.w3.org/1999/xlink" x="0px" y="0px"
	 viewBox="0 0 512 512" style="enable-background:new 0 0 512 512;" xml:space="preserve">
<style type="text/css">
	.st0{fill:#00E6DF;}
	.st1{fill:#FF5E5E;}
</style>
<g>
	<path class="st0" d="M220.7,320.3c0,18.2-9.5,47.9-31.9,47.9s-31.9-29.7-31.9-47.9s9.5-47.9,31.9-47.9S220.7,302.2,220.7,320.3z
		 M476,276.4c0,27.7-2.8,57.1-15.2,82.5c-32.9,66.6-123.5,65-188.3,65c-65.9,0-161.8,2.3-196-65C63.8,333.8,59,304.2,59,276.4
		C59,240,71,205.6,95,177.7c-4.5-13.7-6.7-28.1-6.7-42.4c0-18.7,4.3-28.1,12.7-45c39.4,0,64.6,7.8,94.5,31.3
		c25.2-6,51.1-8.7,77.1-8.7c23.5,0,47.1,2.5,69.9,8c29.5-23.2,54.7-30.6,93.7-30.6c8.5,16.9,12.7,26.3,12.7,45
		c0,14.2-2.3,28.4-6.7,41.9C466,205.4,476,240,476,276.4L476,276.4z M420.1,320.3c0-38.1-23.2-71.8-63.9-71.8
		c-16.4,0-32.1,3-48.7,5.2c-12.9,2-25.9,2.8-39.2,2.8c-13.2,0-26.2-0.8-39.2-2.8c-16.2-2.3-32.1-5.2-48.7-5.2
		c-40.7,0-63.9,33.6-63.9,71.8c0,76.3,69.9,88,130.7,88h41.9C350.4,408.3,420.1,396.7,420.1,320.3z M348.4,272.4
		c-22.4,0-31.9,29.7-31.9,47.9s9.5,47.9,31.9,47.9s31.9-29.7,31.9-47.9S370.8,272.4,348.4,272.4z"/>
	<path class="st1" d="M197.7,320.3c0,18.2-9.5,47.9-31.9,47.9s-31.9-29.7-31.9-47.9s9.5-47.9,31.9-47.9S197.7,302.2,197.7,320.3z
		 M453,276.4c0,27.7-2.8,57.1-15.2,82.5c-32.9,66.6-123.5,65-188.3,65c-65.9,0-161.8,2.3-196-65C40.9,333.8,36,304.2,36,276.4
		c0-36.4,12.1-70.8,36.1-98.7c-4.5-13.7-6.7-28.1-6.7-42.4c0-18.7,4.3-28.1,12.7-45c39.4,0,64.6,7.8,94.5,31.3
		c25.2-6,51.1-8.7,77.1-8.7c23.5,0,47.1,2.5,69.9,8c29.5-23.2,54.7-30.6,93.7-30.6c8.5,16.9,12.7,26.3,12.7,45
		c0,14.2-2.3,28.4-6.7,41.9C443,205.4,453,240,453,276.4L453,276.4z M397.2,320.3c0-38.1-23.2-71.8-63.9-71.8
		c-16.4,0-32.1,3-48.7,5.2c-12.9,2-25.9,2.8-39.2,2.8c-13.2,0-26.2-0.8-39.2-2.8c-16.2-2.3-32.1-5.2-48.7-5.2
		c-40.7,0-63.9,33.6-63.9,71.8c0,76.3,69.9,88,130.7,88h41.9C327.4,408.3,397.2,396.7,397.2,320.3z M325.4,272.4
		c-22.4,0-31.9,29.7-31.9,47.9s9.5,47.9,31.9,47.9c22.4,0,31.9-29.7,31.9-47.9S347.8,272.4,325.4,272.4z"/>
</g>
</svg>
