<?xml version="1.0" encoding="utf-8"?>
<!-- Generator: Adobe Illustrator 25.0.1, SVG Export Plug-In . SVG Version: 6.00 Build 0)  -->
<svg version="1.1" id="Layer_1" xmlns="http://www.w3.org/2000/svg" xmlns:xlink="http://www.w3.org/1999/xlink" x="0px" y="0px"
	 viewBox="0 0 512 512" style="enable-background:new 0 0 512 512;" xml:space="preserve">
<style type="text/css">
	.st0{fill:#00E6DF;}
	.st1{fill:#FF5E5E;}
</style>
<g>
	<path class="st0" d="M464.8,337.4V106.3c0-22.9-18.5-41.4-41.4-41.4H119.9c-22.9,0-41.4,18.5-41.4,41.4v303.4
		c0,22.9,18.5,41.4,41.4,41.4h231.1c11,0,21.5-4.4,29.3-12.1l72.3-72.3C460.4,358.9,464.8,348.4,464.8,337.4z M354.4,406.4v-65.6
		H420L354.4,406.4z M423.4,106.3v193.1h-89.7c-11.4,0-20.7,9.3-20.7,20.7v89.7H119.9V106.3H423.4z"/>
	<path class="st1" d="M439.4,337.4V106.3c0-22.9-18.5-41.4-41.4-41.4H94.6c-22.9,0-41.4,18.5-41.4,41.4v303.4
		c0,22.9,18.5,41.4,41.4,41.4h231.1c11,0,21.5-4.4,29.3-12.1l72.3-72.3C435.1,358.9,439.4,348.4,439.4,337.4z M329.1,406.4v-65.6
		h65.6L329.1,406.4z M398.1,106.3v193.1h-89.7c-11.4,0-20.7,9.3-20.7,20.7v89.7H94.6V106.3H398.1z"/>
</g>
</svg>
